<svg width="9" height="5" viewBox="0 0 9 5" fill="none" xmlns="http://www.w3.org/2000/svg">
<path d="M7.12574 0.212968C7.27484 0.104375 7.45927 0.051654 7.64517 0.0644841C7.83107 0.0773142 8.00597 0.154834 8.13775 0.282812C8.26954 0.410791 8.34936 0.580638 8.36257 0.761172C8.37579 0.941705 8.3215 1.12081 8.20968 1.2656L5.11273 4.27312C4.968 4.41088 4.77342 4.48805 4.57077 4.48805C4.36811 4.48805 4.17353 4.41088 4.0288 4.27312L0.931856 1.2656C0.820034 1.12081 0.765745 0.941705 0.778957 0.761172C0.792169 0.580638 0.871994 0.410791 1.00378 0.282812C1.13556 0.154834 1.31046 0.0773142 1.49636 0.0644841C1.68226 0.051654 1.86669 0.104375 2.01579 0.212968L4.57077 2.68665L7.12574 0.205449V0.212968Z" fill="#71717A"/>
</svg>
